<svg width="25" height="25" viewBox="0 0 25 25" fill="none" xmlns="http://www.w3.org/2000/svg">
<g clip-path="url(#clip0_7139_147608)">
<path fill-rule="evenodd" clip-rule="evenodd" d="M7.04738 6.98582C7.34028 6.69293 7.81515 6.69293 8.10804 6.98582L12.8204 11.6981L17.5327 6.98582C17.8256 6.69293 18.3004 6.69293 18.5933 6.98582C18.8862 7.27871 18.8862 7.75359 18.5933 8.04648L13.881 12.7588L18.5933 17.4711C18.8862 17.764 18.8862 18.2389 18.5933 18.5318C18.3004 18.8247 17.8256 18.8247 17.5327 18.5318L12.8204 13.8194L8.10804 18.5318C7.81515 18.8247 7.34028 18.8247 7.04738 18.5318C6.75449 18.2389 6.75449 17.764 7.04738 17.4711L11.7597 12.7588L7.04738 8.04648C6.75449 7.75359 6.75449 7.27871 7.04738 6.98582Z" fill="#535353"/>
</g>
<defs>
<clipPath id="clip0_7139_147608">
<rect width="24" height="24" fill="white" transform="translate(0.820312 0.758789)"/>
</clipPath>
</defs>
</svg>
